# Blender 3.3.1
# www.blender.org
mtllib untitled.mtl
o Cube
v 5.000000 0.090909 -4.000000
v 5.000000 -0.090909 -4.000000
v 5.000000 0.090909 4.000000
v 5.000000 -0.090909 4.000000
v -5.000000 0.090909 -4.000000
v -5.000000 -0.090909 -4.000000
v -5.000000 0.090909 4.000000
v -5.000000 -0.090909 4.000000
v 4.748841 -0.090909 -4.000000
v -4.748841 -0.090909 -4.000000
v 4.748842 0.090909 4.000000
v -4.748842 0.090909 4.000000
v -4.748841 -0.090909 4.000000
v 4.748841 -0.090909 4.000000
v -4.748842 0.090909 -4.000000
v 4.748842 0.090909 -4.000000
v -5.000002 -0.090909 -3.781847
v -5.000002 -0.090909 3.813869
v 5.000002 0.090909 -3.781847
v 5.000002 0.090909 3.813869
v -5.000002 0.090909 3.813869
v -5.000002 0.090909 -3.781847
v 5.000002 -0.090909 3.813869
v 5.000002 -0.090909 -3.781847
v -4.748843 -0.090909 -3.781847
v -4.748843 -0.090909 3.813869
v 4.748843 -0.090909 -3.781847
v 4.748843 -0.090909 3.813869
v 4.748844 0.090909 -3.781847
v 4.748844 0.090909 3.813869
v -4.748844 0.090909 -3.781847
v -4.748844 0.090909 3.813869
v 1.402522 -0.090909 -4.000000
v -1.304101 -0.090909 -4.000000
v 1.402523 0.090909 4.000000
v -1.304101 0.090909 4.000000
v -1.304101 -0.090909 4.000000
v 1.402522 -0.090909 4.000000
v -1.304101 0.090909 -4.000000
v 1.402523 0.090909 -4.000000
v -1.304101 0.090909 -3.781847
v 1.402523 0.090909 -3.781847
v -1.304101 0.090909 3.813869
v 1.402523 0.090909 3.813869
v 1.402523 -0.090909 -3.781847
v -1.304101 -0.090909 -3.781847
v 1.402523 -0.090909 3.813869
v -1.304101 -0.090909 3.813869
v -5.000002 -0.090909 -1.002827
v -5.000002 -0.090909 1.067308
v 5.000003 0.090909 -1.002827
v 5.000003 0.090909 1.067308
v -5.000003 0.090909 1.067308
v -5.000003 0.090909 -1.002827
v 5.000002 -0.090909 1.067308
v 5.000002 -0.090909 -1.002827
v -4.748844 -0.090909 -1.002827
v -4.748844 -0.090909 1.067308
v 4.748844 -0.090909 -1.002827
v 4.748844 -0.090909 1.067308
v 4.748844 0.090909 -1.002827
v 4.748844 0.090909 1.067308
v -4.748844 0.090909 -1.002827
v -4.748844 0.090909 1.067308
v -1.304101 -0.090909 -1.002827
v -1.304101 -0.090909 1.067308
v 1.402523 -0.090909 -1.002827
v 1.402523 -0.090909 1.067308
v 1.402523 0.090909 -1.002827
v 1.402523 0.090909 1.067308
v -1.304101 0.090909 -1.002827
v -1.304101 0.090909 1.067308
v -4.748842 4.520562 4.000000
v -5.000000 4.520562 4.000000
v 5.000002 4.520562 3.813869
v 5.000000 4.520562 4.000000
v -5.000002 4.520562 -3.781847
v -5.000000 4.520562 -4.000000
v 4.748842 4.520562 -4.000000
v 5.000000 4.520562 -4.000000
v 4.748842 4.520562 4.000000
v -1.304101 4.520562 4.000000
v -4.748842 4.520562 -4.000000
v 1.402523 4.520562 -4.000000
v 4.748844 4.520562 3.813869
v -4.748844 4.520562 3.813869
v 5.000002 4.520562 -3.781847
v 5.000003 4.520562 1.067308
v -5.000002 4.520562 3.813869
v -5.000003 4.520562 -1.002827
v 4.748844 4.520562 -3.781847
v 4.748844 4.520562 1.067308
v -4.748844 4.520562 -3.781847
v -4.748844 4.520562 1.067308
v 1.402523 4.520562 -3.781847
v 1.402523 4.520562 3.813869
v 1.402523 4.520562 4.000000
v -1.304101 4.520562 -4.000000
v -1.304101 4.520562 -3.781847
v -1.304101 4.520562 3.813869
v 5.000003 4.520562 -1.002827
v -5.000003 4.520562 1.067308
v 4.748844 4.520562 -1.002827
v -4.748844 4.520562 -1.002827
v -4.748842 7.963973 4.000000
v -5.000000 7.963973 4.000000
v 5.000002 7.963973 3.813869
v 5.000000 7.963973 4.000000
v -5.000002 7.963973 -3.781847
v -5.000000 7.963973 -4.000000
v 4.748842 7.963973 -4.000000
v 5.000000 7.963973 -4.000000
v 4.748842 7.963973 4.000000
v -1.304101 7.963973 4.000000
v -4.748842 7.963973 -4.000000
v 1.402523 7.963973 -4.000000
v 4.748844 7.963973 3.813869
v -4.748844 7.963973 3.813869
v 5.000002 7.963973 -3.781847
v 5.000003 7.963973 1.067308
v -5.000002 7.963973 3.813869
v -5.000003 7.963973 -1.002827
v 4.748844 7.963973 -3.781847
v 4.748844 7.963973 1.067308
v -4.748844 7.963973 -3.781847
v -4.748844 7.963973 1.067308
v 1.402523 7.963973 -3.781847
v 1.402523 7.963973 3.813869
v 1.402523 7.963973 4.000000
v -1.304101 7.963973 -4.000000
v -1.304101 7.963973 -3.781847
v -1.304101 7.963973 3.813869
v 5.000003 7.963973 -1.002827
v -5.000003 7.963973 1.067308
v 4.748844 7.963973 -1.002827
v -4.748844 7.963973 -1.002827
v -4.748842 8.479296 4.000000
v -5.000000 8.479296 4.000000
v 5.000002 8.479296 3.813869
v 5.000000 8.479296 4.000000
v -5.000002 8.479296 -3.781847
v -5.000000 8.479296 -4.000000
v 4.748842 8.479296 -4.000000
v 5.000000 8.479296 -4.000000
v 4.748842 8.479296 4.000000
v -1.304101 8.479296 4.000000
v -4.748842 8.479296 -4.000000
v 1.402523 8.479296 -4.000000
v 4.748844 8.479296 3.813869
v -4.748844 8.479296 3.813869
v 5.000002 8.479296 -3.781847
v 5.000003 8.479296 1.067308
v -5.000002 8.479296 3.813869
v -5.000003 8.479296 -1.002827
v 4.748844 8.479296 -3.781847
v 4.748844 8.479296 1.067308
v -4.748844 8.479296 -3.781847
v -4.748844 8.479296 1.067308
v 1.402523 8.479296 -3.781847
v 1.402523 8.479296 3.813869
v 1.402523 8.479296 4.000000
v -1.304101 8.479296 -4.000000
v -1.304101 8.479296 -3.781847
v -1.304101 8.479296 3.813869
v 5.000003 8.479296 -1.002827
v -5.000003 8.479296 1.067308
v 4.748844 8.479296 -1.002827
v -4.748844 8.479296 -1.002827
vn -1.0000 -0.0000 -0.0000
vn -0.0000 -0.0000 1.0000
vn -0.0000 -1.0000 -0.0000
vn 1.0000 -0.0000 -0.0000
vn -0.0000 -0.0000 -1.0000
vn -0.0000 1.0000 -0.0000
vt -2.088362 0.021215
vt 0.858976 0.021215
vt -2.088362 0.000000
vt 0.858976 0.000000
vt 2.189363 0.000000
vt 0.355072 0.021215
vt -2.088363 0.021215
vt 2.693265 0.000000
vt 0.355072 0.000000
vt -2.088363 0.000000
vt -1.584460 0.021215
vt -1.584460 0.000000
vt 2.189363 0.021215
vt -2.592266 0.021215
vt -1.080553 0.021215
vt -2.592266 0.000000
vt 2.693265 0.021215
vt -1.080553 0.000000
vt -2.075707 0.000000
vt 2.189363 0.000533
vt 2.189363 0.020682
vt -1.597116 0.000000
vt -2.101020 0.021215
vt -2.579611 0.021215
vt -2.579611 0.000000
vt 2.693265 0.020682
vt 2.693265 0.000533
vt -2.101020 0.000000
vt -1.597116 0.021215
vt -2.075707 0.021215
vt -1.570716 0.000000
vt 2.203104 0.021215
vt 2.681541 0.021215
vt -1.092278 0.000000
vt 0.845235 0.021215
vt 0.366797 0.021215
vt -1.092278 0.021215
vt -1.570716 0.021215
vt 0.366797 0.000000
vt 2.681541 0.000000
vt 2.203104 0.000000
vt 0.845235 0.000000
vt 2.203104 0.020682
vt 2.681541 0.020682
vt 2.203104 0.000533
vt 2.681541 0.000533
vt 1.841317 0.000000
vt 2.189364 0.041365
vt -0.601961 0.000000
vt 2.667802 0.041365
vt -0.601960 0.000000
vt 2.189363 0.000000
vt 2.189364 0.021215
vt 0.355071 0.000000
vt -1.080553 0.000000
vt 2.667802 0.021215
vt -0.123368 0.000000
vt 2.189363 0.007632
vt -1.907085 0.000000
vt 2.189363 0.013374
vt -1.770698 0.000000
vt -2.269642 0.021215
vt -2.406029 0.021215
vt -2.406029 0.000000
vt 2.693265 0.013374
vt -2.269642 0.000000
vt 2.693265 0.007632
vt -1.770698 0.021215
vt -1.907085 0.021215
vt 2.189364 0.028523
vt -0.906971 0.000000
vt 2.189364 0.034265
vt -0.770583 0.000000
vt 2.667802 0.028523
vt -0.296949 0.000000
vt 2.667802 0.034265
vt -0.433338 0.000000
vt 2.203104 0.007632
vt 2.203104 0.013374
vt 2.681541 0.007632
vt 2.681541 0.013374
vt -1.395671 0.000000
vt 2.378148 0.021215
vt -1.265278 0.000000
vt 2.508542 0.021215
vt 2.364409 0.041897
vt 0.670191 0.021215
vt 2.705923 0.000000
vt 0.539797 0.021215
vt 2.494802 0.041897
vt 2.705923 0.000000
vt -1.265278 0.021215
vt -1.395671 0.021215
vt 2.508542 0.000000
vt 0.539797 0.000000
vt 2.378148 0.000000
vt 0.670191 0.000000
vt 2.378148 0.020682
vt 2.508542 0.020682
vt 2.378148 0.000533
vt 2.508542 0.000533
vt 2.016361 0.000000
vt 2.364409 0.041365
vt 2.693268 0.000000
vt 2.494802 0.041365
vt 2.016364 0.000000
vt 2.718580 0.000000
vt 2.364409 0.021215
vt 0.180026 0.000000
vt 2.494802 0.021215
vt 0.049633 0.000000
vt 2.378148 0.013374
vt 2.508542 0.013374
vt 2.378148 0.007632
vt 2.508542 0.007632
vt 2.364409 0.034265
vt 2.494802 0.034265
vt 2.364409 0.028523
vt 2.494802 0.028523
vt -2.579612 0.538082
vt -2.592268 0.538082
vt -1.080555 0.538082
vt 0.366796 0.538082
vt 0.870701 0.000000
vt 0.355072 0.538082
vt 0.858976 0.000000
vt -2.088365 0.538082
vt -1.570716 0.538082
vt -1.584461 0.538082
vt -2.075708 0.538082
vt 0.858974 0.538082
vt -2.088365 0.538082
vt 1.362880 0.000000
vt -2.101022 0.538082
vt 2.201087 0.084644
vt -2.406031 0.538082
vt 2.796691 0.000000
vt -1.597118 0.538082
vt 2.189363 0.079154
vt 2.718580 0.000000
vt -1.907086 0.538082
vt 1.841317 0.000000
vt 2.189363 0.516867
vt -0.601960 0.516867
vt -0.123368 0.516867
vt 0.845233 0.538082
vt 1.349138 0.000000
vt 0.539797 0.538082
vt 1.043700 0.000000
vt 2.705923 0.516867
vt 2.746062 0.000000
vt -1.092278 0.538082
vt 2.784034 0.000000
vt 2.202019 0.079154
vt -1.395672 0.538082
vt 1.841316 0.516867
vt 1.362880 0.000000
vt -0.601963 0.516867
vt 1.668316 0.000000
vt 2.016363 0.516867
vt 2.718580 0.516867
vt 2.758718 0.000000
vt 0.355069 0.516867
vt -1.080553 0.516867
vt 2.189363 0.084644
vt 2.758721 0.000000
vt 0.049631 0.516867
vt 2.203104 0.079154
vt -0.770585 0.516867
vt 2.732322 0.000000
vt 2.189363 0.090386
vt -0.433338 0.516867
vt 2.808416 0.000000
vt 2.201087 0.090386
vt 2.820140 0.000000
vt -2.269643 0.538082
vt 2.189363 0.073412
vt -1.770699 0.538082
vt 2.746063 0.000000
vt 2.203104 0.073412
vt -0.906972 0.516867
vt 2.732324 0.000000
vt 2.189363 0.084644
vt -0.296951 0.516867
vt 2.808416 0.000000
vt 0.670190 0.538082
vt 2.705923 0.516867
vt 2.784033 0.000000
vt 1.174093 0.000000
vt 2.202019 0.084644
vt 2.771377 0.000000
vt -1.265279 0.538082
vt 2.016361 0.516867
vt 1.537923 0.000000
vt 2.693266 0.516867
vt 2.771378 0.000000
vt 2.796691 0.000000
vt 2.189363 0.079154
vt 0.180024 0.516867
vt -2.450921 0.855890
vt -0.951865 0.855890
vt -2.463578 0.855890
vt 0.870700 0.401787
vt 0.858976 0.401787
vt -1.959676 0.855890
vt -1.442027 0.855890
vt -1.455772 0.855890
vt -1.947018 0.855890
vt -1.959674 0.855890
vt 1.362878 0.401787
vt -1.972331 0.855890
vt 2.796691 0.401787
vt -2.277340 0.855890
vt -1.468427 0.855890
vt 2.718580 0.401787
vt -1.778396 0.855890
vt 1.841316 0.401787
vt -0.473271 0.834675
vt 0.005320 0.834675
vt 1.349137 0.401787
vt 2.746062 0.401787
vt 1.043700 0.401787
vt -0.963589 0.855890
vt 2.784034 0.401787
vt -1.266981 0.855890
vt -0.473274 0.834675
vt 1.362878 0.401787
vt 2.758718 0.401787
vt 1.668316 0.401787
vt 0.483758 0.834675
vt -0.951864 0.834675
vt 2.758720 0.401787
vt 0.178320 0.834675
vt 2.732321 0.401787
vt -0.641896 0.834675
vt 2.808415 0.401787
vt -0.562030 0.905110
vt 2.820138 0.401787
vt -2.140953 0.855890
vt 2.746063 0.401787
vt -1.642008 0.855890
vt 2.732322 0.401787
vt -0.778283 0.834675
vt 2.808415 0.401787
vt -0.168262 0.834675
vt 2.784033 0.401787
vt 1.174093 0.401787
vt 2.771377 0.401787
vt -1.136589 0.855890
vt 2.771377 0.401787
vt 1.537923 0.401787
vt 2.796691 0.401787
vt 0.308715 0.834675
vt 2.189363 0.057154
vt -2.450921 0.916019
vt 2.189363 0.057687
vt -0.951865 0.916019
vt -2.463578 0.916019
vt 2.370641 0.066128
vt 0.870700 0.461918
vt -1.959676 0.916019
vt 0.858976 0.461918
vt 2.370641 0.065635
vt 2.375600 0.042476
vt -1.442027 0.916019
vt 2.375600 0.041897
vt -1.455772 0.916019
vt 2.202019 0.057687
vt -1.947018 0.916019
vt -1.959674 0.916019
vt 2.189363 0.057687
vt 1.362878 0.461918
vt 2.357985 0.065635
vt -1.972331 0.916019
vt 2.189363 0.049846
vt -2.277340 0.916019
vt 2.362944 0.041897
vt -1.468427 0.916019
vt 2.370641 0.057687
vt -1.778397 0.916019
vt 1.841316 0.461918
vt 2.357985 0.066128
vt -0.473271 0.894804
vt 2.201087 0.057154
vt 0.005320 0.894804
vt 2.189363 0.058265
vt 1.349137 0.461918
vt 2.370641 0.073412
vt 1.043700 0.461918
vt 2.201087 0.057687
vt -0.963589 0.916019
vt 2.375600 0.049846
vt -1.266983 0.916019
vt -0.473274 0.894804
vt 2.202019 0.058265
vt 1.362878 0.461918
vt 2.357985 0.073412
vt 1.668316 0.461918
vt 2.362944 0.042476
vt 0.483758 0.894804
vt -0.951864 0.894804
vt 2.374087 0.057154
vt 0.178320 0.894804
vt 2.370641 0.058265
vt -0.641896 0.894804
vt 2.189363 0.066128
vt -0.304649 0.894804
vt 2.189363 0.065635
vt -2.140953 0.916019
vt 2.189363 0.041897
vt -1.642008 0.916019
vt 2.189363 0.042476
vt -0.778283 0.894804
vt 2.201087 0.049846
vt -0.168262 0.894804
vt 2.189363 0.065635
vt 1.174093 0.461918
vt 2.374087 0.057687
vt -1.136589 0.916019
vt 2.202019 0.065635
vt 1.537923 0.461918
vt 2.362944 0.049846
vt 0.308715 0.894804
s 0
usemtl Материал
f 29/47/1 61/102/1 103/193/1 91/156/1
f 13/25/2 12/24/2 7/14/2 8/16/2
f 17/31/1 22/38/1 5/11/1 6/12/1
f 28/46/3 23/40/3 4/8/3 14/27/3
f 23/39/4 20/36/4 3/6/4 4/9/4
f 9/19/5 16/30/5 1/1/5 2/3/5
f 6/12/5 5/11/5 15/29/5 10/22/5
f 33/59/5 40/69/5 16/30/5 9/19/5
f 18/33/3 26/44/3 13/26/3 8/17/3
f 47/80/3 28/46/3 14/27/3 38/67/3
f 4/10/2 3/7/2 11/23/2 14/28/2
f 37/64/2 36/63/2 12/24/2 13/25/2
f 1/1/5 16/30/5 79/130/5 80/132/5
f 36/63/2 35/62/2 97/176/2 82/136/2
f 5/11/1 22/38/1 77/128/1 78/129/1
f 72/119/6 64/110/6 32/56/6 43/74/6
f 35/62/2 11/23/2 81/134/2 97/176/2
f 3/6/4 20/36/4 75/123/4 76/125/4
f 33/58/3 9/20/3 27/45/3 45/78/3
f 68/115/3 60/101/3 28/46/3 47/80/3
f 6/13/3 10/21/3 25/43/3 17/32/3
f 50/85/3 58/99/3 26/44/3 18/33/3
f 2/4/4 1/2/4 19/35/4 24/42/4
f 55/95/4 52/89/4 20/36/4 23/39/4
f 9/20/3 2/5/3 24/41/3 27/45/3
f 60/101/3 55/94/3 23/40/3 28/46/3
f 8/18/1 7/15/1 21/37/1 18/34/1
f 49/82/1 54/93/1 22/38/1 17/31/1
f 22/38/1 54/93/1 90/155/1 77/128/1
f 7/14/2 12/24/2 73/120/2 74/121/2
f 58/99/3 66/113/3 48/81/3 26/44/3
f 66/113/3 68/115/3 47/80/3 48/81/3
f 10/21/3 34/60/3 46/79/3 25/43/3
f 34/60/3 33/58/3 45/78/3 46/79/3
f 62/105/6 70/117/6 44/76/6 30/50/6
f 70/117/6 72/119/6 43/74/6 44/76/6
f 16/30/5 40/69/5 84/141/5 79/130/5
f 21/37/1 7/15/1 74/122/1 89/152/1
f 30/51/5 44/77/5 96/172/5 85/144/5
f 15/29/5 5/11/5 78/129/5 83/138/5
f 14/28/2 11/23/2 35/62/2 38/66/2
f 38/66/2 35/62/2 36/63/2 37/64/2
f 26/44/3 48/81/3 37/65/3 13/26/3
f 48/81/3 47/80/3 38/67/3 37/65/3
f 10/22/5 15/29/5 39/68/5 34/61/5
f 34/61/5 39/68/5 40/69/5 33/59/5
f 42/72/6 41/70/6 71/118/6 69/116/6
f 69/116/6 71/118/6 72/119/6 70/117/6
f 29/48/6 42/72/6 69/116/6 61/103/6
f 61/103/6 69/116/6 70/117/6 62/105/6
f 46/79/3 45/78/3 67/114/3 65/112/3
f 65/112/3 67/114/3 68/115/3 66/113/3
f 25/43/3 46/79/3 65/112/3 57/98/3
f 57/98/3 65/112/3 66/113/3 58/99/3
f 20/36/4 52/89/4 88/148/4 75/123/4
f 44/77/5 43/75/5 100/184/5 96/172/5
f 18/34/1 21/37/1 53/92/1 50/84/1
f 50/84/1 53/92/1 54/93/1 49/82/1
f 27/45/3 24/41/3 56/96/3 59/100/3
f 59/100/3 56/96/3 55/94/3 60/101/3
f 24/42/4 19/35/4 51/87/4 56/97/4
f 56/97/4 51/87/4 52/89/4 55/95/4
f 17/32/3 25/43/3 57/98/3 49/83/3
f 49/83/3 57/98/3 58/99/3 50/85/3
f 45/78/3 27/45/3 59/100/3 67/114/3
f 67/114/3 59/100/3 60/101/3 68/115/3
f 42/73/2 29/49/2 91/158/2 95/169/2
f 51/86/6 61/103/6 62/105/6 52/90/6
f 41/70/6 31/53/6 63/108/6 71/118/6
f 71/118/6 63/108/6 64/110/6 72/119/6
f 78/129/1 77/128/1 109/206/1 110/207/1
f 90/153/2 104/197/2 136/252/2 122/224/2
f 92/159/1 85/142/1 117/217/1 124/229/1
f 93/164/2 99/181/2 131/243/2 125/231/2
f 76/126/4 75/124/4 107/203/4 108/204/4
f 74/121/2 73/120/2 105/200/2 106/202/2
f 104/199/4 93/163/4 125/230/4 136/253/4
f 77/128/1 90/155/1 122/225/1 109/206/1
f 98/178/5 83/138/5 115/214/5 130/241/5
f 84/139/6 98/177/6 99/180/6 95/168/6
f 91/157/1 103/194/1 135/251/1 123/227/1
f 96/171/6 100/183/6 82/135/6 97/174/6
f 89/152/1 74/122/1 106/201/1 121/223/1
f 104/198/6 90/154/6 102/190/6 94/165/6
f 75/124/4 88/149/4 120/222/4 107/203/4
f 63/109/4 31/54/4 93/163/4 104/199/4
f 39/68/5 15/29/5 83/138/5 98/178/5
f 64/111/4 63/109/4 104/199/4 94/167/4
f 40/69/5 39/68/5 98/178/5 84/141/5
f 51/87/4 19/35/4 87/146/4 101/186/4
f 11/23/2 3/7/2 76/127/2 81/134/2
f 62/106/1 30/52/1 85/143/1 92/160/1
f 31/55/2 41/71/2 99/181/2 93/164/2
f 12/24/2 36/63/2 82/136/2 73/120/2
f 61/104/2 51/88/2 101/187/2 103/195/2
f 41/71/2 42/73/2 95/169/2 99/181/2
f 53/92/1 21/37/1 89/152/1 102/192/1
f 32/57/4 64/111/4 94/167/4 86/145/4
f 52/91/5 62/107/5 92/161/5 88/150/5
f 43/75/5 32/57/5 86/145/5 100/184/5
f 54/93/1 53/92/1 102/192/1 90/155/1
f 19/35/4 1/2/4 80/131/4 87/146/4
f 105/200/2 114/213/2 146/276/2 137/255/2
f 127/235/2 123/226/2 155/294/2 159/305/2
f 113/211/2 108/205/2 140/261/2 145/274/2
f 118/219/4 126/233/4 158/303/4 150/285/4
f 112/209/5 111/208/5 143/269/5 144/270/5
f 110/207/1 109/206/1 141/265/1 142/267/1
f 124/229/1 117/217/1 149/281/1 156/298/1
f 108/204/4 107/203/4 139/260/4 140/262/4
f 94/166/5 102/191/5 134/248/5 126/232/5
f 80/132/5 79/130/5 111/208/5 112/209/5
f 100/184/5 86/145/5 118/219/5 132/245/5
f 86/145/4 94/167/4 126/233/4 118/219/4
f 103/196/2 101/188/2 133/246/2 135/250/2
f 81/134/2 76/127/2 108/205/2 113/211/2
f 95/169/2 91/158/2 123/226/2 127/235/2
f 88/151/5 92/162/5 124/228/5 120/221/5
f 73/120/2 82/136/2 114/213/2 105/200/2
f 84/140/1 95/170/1 127/234/1 116/215/1
f 85/144/5 96/172/5 128/237/5 117/218/5
f 83/138/5 78/129/5 110/207/5 115/214/5
f 99/182/4 98/179/4 130/240/4 131/242/4
f 79/130/5 84/141/5 116/216/5 111/208/5
f 96/173/1 97/175/1 129/238/1 128/236/1
f 82/137/4 100/185/4 132/244/4 114/212/4
f 101/189/4 87/147/4 119/220/4 133/247/4
f 87/147/4 80/133/4 112/210/4 119/220/4
f 102/192/1 89/152/1 121/223/1 134/249/1
f 97/176/2 81/134/2 113/211/2 129/239/2
f 150/284/6 153/290/6 138/256/6 137/254/6
f 139/259/6 149/282/6 145/273/6 140/263/6
f 164/314/6 150/284/6 137/254/6 146/275/6
f 162/310/6 147/277/6 157/299/6 163/312/6
f 144/271/6 143/268/6 155/295/6 151/286/6
f 152/288/6 156/297/6 149/282/6 139/259/6
f 147/277/6 142/266/6 141/264/6 157/299/6
f 158/302/6 166/318/6 153/290/6 150/284/6
f 143/268/6 148/279/6 159/304/6 155/295/6
f 149/282/6 160/306/6 161/308/6 145/273/6
f 157/299/6 141/264/6 154/292/6 168/322/6
f 151/286/6 155/295/6 167/320/6 165/316/6
f 133/247/4 119/220/4 151/287/4 165/317/4
f 117/218/5 128/237/5 160/307/5 149/283/5
f 115/214/5 110/207/5 142/267/5 147/278/5
f 134/249/1 121/223/1 153/291/1 166/319/1
f 111/208/5 116/216/5 148/280/5 143/269/5
f 123/227/1 135/251/1 167/321/1 155/296/1
f 136/253/4 125/230/4 157/300/4 168/323/4
f 119/220/4 112/210/4 144/272/4 151/287/4
f 129/239/2 113/211/2 145/274/2 161/309/2
f 107/203/4 120/222/4 152/289/4 139/260/4
f 130/241/5 115/214/5 147/278/5 162/311/5
f 121/223/1 106/201/1 138/257/1 153/291/1
f 165/317/4 152/289/4 120/222/4 133/247/4
f 125/231/2 131/243/2 163/313/2 157/301/2
f 109/206/1 122/225/1 154/293/1 141/265/1
f 106/202/2 105/200/2 137/255/2 138/258/2
f 132/245/5 118/219/5 150/285/5 164/315/5
f 156/298/1 167/321/1 135/251/1 124/229/1
f 134/249/1 166/319/1 154/293/1 122/225/1
f 148/280/5 116/216/5 130/241/5 162/311/5
f 126/233/4 136/253/4 168/323/4 158/303/4
f 129/239/2 161/309/2 146/276/2 114/213/2
f 160/307/5 128/237/5 132/245/5 164/315/5
f 127/235/2 159/305/2 163/313/2 131/243/2
